# xmcd
#
# Track frame offsets:
#	150
#	15678
#	29719
#	45170
#	57266
#	68923
#	79853
#	95306
#	111768
#	124889
#	140630
#	153609
#	169304
#	182751
#	193760
#
# Disc length: 2753 seconds
#
# Revision: 0
# Processed by: cddbd v1.5.2PL0 Copyright (c) Steve Scherf et al.
# Submitted via: EasyCDDAExtractor 2010.6.0.0
#
DISCID=d20abf0f
DTITLE=Guilherme and Santiago - Até o Fim
DYEAR=2012
DGENRE=Sertanejo
TTITLE0=Hoje Tem Balada
TTITLE1=Fazer Besteirinha
TTITLE2=Me Empresta um Beijo
TTITLE3=Que Tal
TTITLE4=Amigos de Balada
TTITLE5=Tô Solteiro e Tô Feliz
TTITLE6=Triste e Alegre
TTITLE7=Vou Até o Fim
TTITLE8=Eu Vou
TTITLE9=Não Vivo Sem Você
TTITLE10=Nosso Amor Acabou
TTITLE11=A Força do Amor
TTITLE12=O Valentão
TTITLE13=Tá Meio Bagunçado
TTITLE14=Bolo Doido
EXTD=
EXTT0=
EXTT1=
EXTT2=
EXTT3=
EXTT4=
EXTT5=
EXTT6=
EXTT7=
EXTT8=
EXTT9=
EXTT10=
EXTT11=
EXTT12=
EXTT13=
EXTT14=
PLAYORDER=
